<?xml version="1.0" encoding="utf-8"?>
<!-- Generator: Adobe Illustrator 17.1.0, SVG Export Plug-In . SVG Version: 6.00 Build 0)  -->
<!DOCTYPE svg PUBLIC "-//W3C//DTD SVG 1.1//EN" "http://www.w3.org/Graphics/SVG/1.1/DTD/svg11.dtd">
<svg version="1.1" class="logo--svg" xmlns="http://www.w3.org/2000/svg" xmlns:xlink="http://www.w3.org/1999/xlink" x="0px" y="0px"
	 viewBox="0 0 763.016 311.874" enable-background="new 0 0 763.016 311.874" xml:space="preserve">
<g>
	
		<rect x="-39.437" y="-141.7" display="none" fill-rule="evenodd" clip-rule="evenodd" fill="#808285" width="841.89" height="595.276"/>
	<g>
		<g id="text">
			<path d="M302.194,119.412h13.628c3.52,0,6.556,1.259,9.075,3.779c2.519,2.519,3.778,5.554,3.778,9.075v87.808
				h-26.481V119.412L302.194,119.412z M302.194,89.895h13.628c3.52,0,6.556,1.259,9.075,3.778c2.519,2.519,3.778,5.555,3.778,9.107
				v7.944h-26.481V89.895z"/>
			<path d="M361.751,119.412L361.751,119.412v37.074l32.165-37.074h31.778l-35.944,38.592l36.331,62.07h-31.778
				l-18.537-34.07c-3.811-6.814-7.072-9.688-9.85-8.687c-2.777,1.001-4.166,2.519-4.166,4.521v14.016v24.221H335.27V89.895h13.628
				c3.52,0,6.556,1.259,9.075,3.778c2.519,2.519,3.778,5.426,3.778,8.72V119.412L361.751,119.412z M589.965,119.412L589.965,119.412
				v37.074l32.165-37.074h31.778l-35.944,38.592l36.331,62.07h-31.778l-18.537-34.07c-3.811-6.814-7.072-9.688-9.85-8.687
				c-2.777,1.001-4.166,2.519-4.166,4.521v14.016v24.221h-26.482V89.895h13.628c3.52,0,6.556,1.259,9.075,3.778
				c2.519,2.519,3.779,5.426,3.779,8.72V119.412L589.965,119.412z M537.964,189.039h18.925
				c-2.777,10.593-8.074,18.666-15.889,24.221c-7.815,5.813-17.665,8.719-29.517,8.719c-14.403,0-25.609-4.683-33.683-14.016
				c-8.074-9.075-12.11-22.057-12.11-38.979c0-16.147,3.908-28.775,11.723-37.849c8.073-9.333,19.312-14.016,33.683-14.016
				c15.146,0,26.869,4.554,35.201,13.628c4.521,5.554,7.815,11.981,9.818,19.312h-26.481c-1.259-2.519-2.519-4.424-3.778-5.684
				c-3.294-3.52-7.945-5.296-14.016-5.296c-5.522,0-10.076,1.776-13.596,5.296c-4.554,5.038-6.814,13.37-6.814,24.996
				c0,11.594,2.261,19.796,6.814,24.576c3.262,4.037,8.17,6.072,14.758,6.072c4.263,0,7.945-0.872,10.948-2.648
				c0.775-0.259,1.453-0.711,2.099-1.324c0.614-0.646,1.324-1.324,2.067-2.099c0.517-0.743,1.518-1.744,3.036-3.003
				C532.668,189.685,534.929,189.039,537.964,189.039L537.964,189.039z M432.676,119.412h13.628c3.52,0,6.556,1.259,9.075,3.779
				c2.519,2.519,3.778,5.554,3.778,9.075v87.808h-26.481V119.412L432.676,119.412z M432.676,89.895h13.628
				c3.52,0,6.556,1.259,9.075,3.778c2.519,2.519,3.778,5.555,3.778,9.107v7.944h-26.481V89.895z"/>
			<path d="M668.833,199.244h12.885v20.83h-20.83v-12.885C660.889,201.892,663.537,199.244,668.833,199.244z"/>
			<path d="M688.313,119.412h13.628c3.52,0,6.556,1.259,9.075,3.779c2.519,2.519,3.778,5.554,3.778,9.075v87.808
				h-26.481V119.412L688.313,119.412z M688.313,89.895h13.628c3.52,0,6.556,1.259,9.075,3.778c2.519,2.519,3.778,5.555,3.778,9.107
				v7.944h-26.481V89.895z"/>
			<path d="M763.016,220.074c-8.332,0.517-17.342,0.388-27.063-0.388c-9.721-0.743-14.565-6.943-14.565-18.537
				V89.895h13.628c3.294,0,6.201,1.259,8.719,3.778c2.519,2.519,3.779,5.555,3.779,9.075v17.019h15.501v5.297
				c0,3.778-1.26,6.879-3.779,9.301c-2.519,2.39-5.555,3.585-9.075,3.585h-2.648v56.031c0,4.295,2.519,6.427,7.557,6.427h7.944
				V220.074z"/>
		</g>
		<g id="kicker">
			<path fill-rule="evenodd" clip-rule="evenodd" d="M161.156,77.657c-55.954,21.723-7.871,159.748,95.925,155.192
				c-94.368-32.964-147.513-207.069,23.012-65.584C226.959,103.091,187.314,73.221,161.156,77.657L161.156,77.657z M28.525,28.8
				c0.008,0.006,0.016,0.012,0.025,0.017c38.433,29.062,74.851,46.702,109.253,52.919c-24.752,30.206-10.269,89.32,43.449,177.346
				l0.01,0.018c6.704,10.984,14.017,22.418,21.942,34.302c4.562,6.549,9.107,12.707,13.635,18.472
				c-29.949-26.463-49.433-45.189-58.452-56.178c-0.903-1.152-1.796-2.307-2.681-3.462c-7.354-9.617-14.071-19.381-20.151-29.291
				c-22.749-37.083-36.574-76.225-41.476-117.427C77.002,94.394,62.144,83.211,49.507,71.969
				C37.371,61.173,27.281,50.323,19.239,39.416C10.986,27.42,4.573,14.281,0,0C8.354,11.836,17.862,21.437,28.525,28.8z"/>
			<path fill-rule="evenodd" clip-rule="evenodd" d="M242.66,242.245c-12.281,8.857-19.356,20.566-21.225,35.125
				c0.42,10.008,8.34,9.041,17.228,2.828c-1.745-2.36-2.193-4.981-1.343-7.861c0.545,2.393,1.511,4.637,2.896,6.731
				c1.775-1.345,3.574-2.882,5.344-4.566c-1.815-2.258-2.663-4.777-2.543-7.558c1.208,2.274,2.505,4.354,3.893,6.241
				c1.771-1.775,3.501-3.689,5.138-5.696c-1.6-1.954-2.109-4.016-1.527-6.188c0.498,1.689,1.332,3.345,2.502,4.966
				c4.528-5.792,8.224-12.264,9.901-18.372c-1.149,8.623-3.455,15.875-6.919,21.755c1.195,1.142,2.568,2.267,4.118,3.374
				c-1.786-0.82-3.328-1.664-4.628-2.532c-1.54,2.475-3.294,4.696-5.264,6.663c1.173,1.226,2.4,2.337,3.679,3.334
				c-1.705-0.788-3.21-1.63-4.515-2.526c-1.904,1.779-3.997,3.334-6.279,4.665c1.343,1.368,2.9,2.659,4.671,3.873
				c-2.336-0.991-4.295-2.057-5.879-3.199c-5.68,3.033-12.468,4.754-20.361,5.165c15.628,32.254,63.26-11.984,54.19-42.706
				C269.739,233.41,258.713,232.238,242.66,242.245L242.66,242.245z M142.789,69.875c10.589,0,19.176-12.925,19.176-28.861
				c0-15.936-8.587-28.86-19.176-28.86c-10.59,0-19.177,12.924-19.177,28.86C123.612,56.95,132.199,69.875,142.789,69.875z"/>
		</g>
	</g>
</g>
</svg>
